<svg id="Layer_1" data-name="Layer 1" xmlns="http://www.w3.org/2000/svg" viewBox="0 0 87.31 63.35"><defs><style>.cls-1{fill:#fff;}</style></defs><path class="cls-1" d="M63.54,7.6v7.71l8,.56v7.37h8.06V7.87h7.72V39.34l-7.45.52c-.11,2.42-.21,4.71-.33,7.51H71.59v8.3l.14-.14H64c-.17-2.59-.33-5-.5-7.65H23.74v7.65H15.62l.14.14V47.9l-7.9-.52c-.11-2.44-.21-4.72-.33-7.51L0,39.42V7.88H7.44v15.4h8l.37-7.41,7.62-.46c.13-2.63.25-5.23.38-7.83l-.18.18H31.4c.18,2.54.34,5,.52,7.59H55.61V7.78h8.1ZM23.91,31.34h7.45V24H23.91Zm31.86-.13h7.57V24H55.77Z" transform="translate(0 0.06)"/><path class="cls-1" d="M63.71,7.78V0h7.64V7.6H63.54Z" transform="translate(0 0.06)"/><path class="cls-1" d="M23.84,7.58H16.05V-.06h7.61V7.75Z" transform="translate(0 0.06)"/><path class="cls-1" d="M15.62,55.53v7.73H8V55.67h7.76Z" transform="translate(0 0.06)"/><path class="cls-1" d="M71.59,55.67h7.74v7.62h-7.6V55.53Z" transform="translate(0 0.06)"/></svg>