<svg id="Layer_1" data-name="Layer 1" xmlns="http://www.w3.org/2000/svg" viewBox="0 0 87.48 63.35"><defs><style>.cls-1{fill:#fff;}</style></defs><path class="cls-1" d="M63.79,55.73V48H23.62v7.74l.15-.14H15.82V40H8V55.32H0V31.81H7.5V24l8-.55V15.92h7.93l.4-8.28-.17.18h7.74L32,15.41h23.7V7.84h8.09l-.17-.18v7.72l8,.54v7.51h7.89l.49,8,7.56.41V55.31H79.79V39.93H71.92V55.59H63.65ZM31.38,31.45v-7.4H24v7.4ZM56,23.9v7.4h7.43V23.9Z"/><path class="cls-1" d="M63.65,55.59v7.74H48v-7.6H63.79Z"/><path class="cls-1" d="M23.62,55.73H39.34v7.62H23.77V55.59Z"/><path class="cls-1" d="M63.74,7.84V0h7.64V7.66H63.57Z"/><path class="cls-1" d="M23.87,7.64H16.08V0H23.7V7.81Z"/></svg>