<svg id="Layer_1" data-name="Layer 1" xmlns="http://www.w3.org/2000/svg" viewBox="0 0 63.47 63.41"><defs><style>.cls-1{fill:#fff;}</style></defs><path class="cls-1" d="M15.8,47.8V39.85H0v-16H7.46c.16-2.71.29-5.12.45-7.83l7.67-.51V8h7.84c.19-2.9.36-5.3.54-7.95H39.65V7.47l7.86.47c.13,2.55.26,5,.4,7.68h7.62v7.81l7.94.56V39.52H47.64V47.8l.15-.13H39.65l.14.14V40.07H23.65v7.74l.14-.14H15.65Zm7.64-16.29V24.05H16.08v7.46Zm16.48-.13h7.57V24H39.92Z"/><path class="cls-1" d="M39.78,55.66H23.65l.14.15V47.67l-.14.14H39.79l-.14-.14v8.14Z"/><path class="cls-1" d="M7.8,55.79v-8h8l-.15-.13v8.14l.14-.15H7.66Z"/><path class="cls-1" d="M47.64,47.8h8v8l.14-.15H47.65l.14.15V47.67Z"/><path class="cls-1" d="M7.66,55.65v7.74H0v-7.6H7.8Z"/><path class="cls-1" d="M23.65,55.66V63.4H15.79V55.66l-.14.15h8.14Z"/><path class="cls-1" d="M47.65,55.66V63.4H39.78V55.66l-.13.15h8.14Z"/><path class="cls-1" d="M55.63,55.8h7.74v7.61h-7.6V55.65Z"/></svg>