<svg id="Layer_1" data-name="Layer 1" xmlns="http://www.w3.org/2000/svg" viewBox="0 0 95.32 63.42"><defs><style>.cls-1{fill:#fff;}</style></defs><path class="cls-1" d="M39.72,47.66H31.9c-.15,2.7-.28,5.1-.44,8H15.59l.14.14V48l7.65-.48V40H0V15.93l7.52-.37V7.92H31.34c.2-2.89.38-5.28.56-7.92H63.57V7.6H87.44c.14,2.89.26,5.3.39,8H95.3v24H71.91v7.86h7.65V55.8l.15-.14H63.91c-.15-2.54-.29-4.93-.47-8H55.58l.14.15V40.07H39.58v7.74ZM23.86,23.92v7.55H39.35V23.92Zm32,7.58H71.37V24.06H55.84Z" transform="translate(0.02)"/><path class="cls-1" d="M55.58,47.66v7.75H39.72V47.66l-.14.15H55.72Z" transform="translate(0.02)"/><path class="cls-1" d="M15.59,55.65V63.4H0V55.79H15.73Z" transform="translate(0.02)"/><path class="cls-1" d="M79.56,55.8H95.28v7.62H79.71V55.66Z" transform="translate(0.02)"/></svg>