<?xml version="1.0" encoding="utf-8"?>
<!-- Generator: Adobe Illustrator 25.4.1, SVG Export Plug-In . SVG Version: 6.00 Build 0)  -->
<svg version="1.1" id="Layer_1" xmlns="http://www.w3.org/2000/svg" xmlns:xlink="http://www.w3.org/1999/xlink" x="0px" y="0px"
	 viewBox="0 0 257.6 157.5" style="enable-background:new 0 0 257.6 157.5;" xml:space="preserve">
<style type="text/css">
	.st0{fill:#32CD32;}
</style>
<g>
	<polygon class="st0" points="39.2,39 39.5,39 39.5,40.3 59.2,40.3 59.2,19.1 39.2,19.1 	"/>
	<polygon class="st0" points="19.6,80.8 0,80.8 0,137.3 19.9,137.3 19.9,81.4 19.6,81.4 	"/>
	<rect x="59.2" y="0" class="st0" width="19.9" height="19.1"/>
	<polygon class="st0" points="79.1,19.1 79.1,40.3 98.8,40.3 99,40.3 99,19.1 99,19.1 	"/>
	<rect x="59.2" y="122.4" class="st0" width="16.2" height="16"/>
	<polygon class="st0" points="183.1,122.4 183.1,138.4 198.5,138.4 198.5,157.5 218.3,157.5 218.3,122.4 198.4,122.4 	"/>
	<rect x="138.8" y="82.8" class="st0" width="19.9" height="18.4"/>
	<rect x="239.2" y="137.3" class="st0" width="18.5" height="20.3"/>
	<polygon class="st0" points="239.2,78.8 239.2,61.6 218.3,61.6 198.4,61.6 178.6,61.6 178.6,80.8 198.4,80.8 198.4,82.8 
		198.4,101.2 218.3,101.2 218.3,82.8 239.2,82.8 	"/>
	<polygon class="st0" points="218.8,40.3 218.8,40.3 218.6,40.3 218.6,19.1 210.7,19.1 198.5,19.1 198.4,19.1 198.4,21.2 
		198.4,40.3 198.4,40.3 218.3,40.3 	"/>
	<polygon class="st0" points="158.7,19.1 158.7,40.3 138.8,40.3 138.8,40.3 138.8,61.6 158.7,61.6 178.5,61.6 178.5,52 178.5,40.3 
		178.5,40.3 178.5,21.2 178.5,19.1 178.5,0 158.7,0 	"/>
	<rect x="79.1" y="104" class="st0" width="18.4" height="17.9"/>
</g>
</svg>
