<?xml version="1.0" encoding="utf-8"?>
<!-- Generator: Adobe Illustrator 25.4.1, SVG Export Plug-In . SVG Version: 6.00 Build 0)  -->
<svg version="1.1" id="Layer_1" xmlns="http://www.w3.org/2000/svg" xmlns:xlink="http://www.w3.org/1999/xlink" x="0px" y="0px"
	 viewBox="0 0 127.5 55.4" style="enable-background:new 0 0 127.5 55.4;" xml:space="preserve">
<style type="text/css">
	.st0{fill:#FF0000;}
</style>
<path class="st0" d="M71.9,40v7.4H56L55.6,40H40l-0.5,7.5L31.9,48v7.4H24l-0.5-7.5H16l-0.4-8.1H0v-7.9h7.4l0.6-8h7.5V16l8.1-0.6V8
	h15.8L40,0h47.5c0.1,2.3,0.3,4.7,0.4,7.6h15.6v7.9h7.9c0.2,2.9,0.3,5.3,0.5,8l7.5,0.3v7.6l8,0.5v7.6h-15.4l-0.5,8l-7.5,0.4
	c-0.2,2.3-0.3,4.8-0.5,7.5H96L95.6,48L88,47.5L87.6,40H71.9z M103.4,31.5V24h-7.3v7.6L103.4,31.5z M79.5,31.5V24h-7.4v7.5L79.5,31.5
	z M48.1,24v7.4h7.4V24H48.1z M31.4,31.6v-7.6h-7.2v7.6H31.4z"/>
</svg>
