<svg id="Layer_1" data-name="Layer 1" xmlns="http://www.w3.org/2000/svg" viewBox="0 0 63.42 63.39"><defs><style>.cls-1{fill:#fff;}</style></defs><path class="cls-1" d="M55.9,47.43H47.79V40.08H39.91c-.14,2.29-.29,4.68-.45,7.35H23.85c-.11-2.4-.21-4.67-.33-7.33H15.89c-.12,2.21-.25,4.6-.42,7.52H7.61l.14.15V40l-7.81-.47V23.83H7.47V16l8-.56V8l7.93-.48c.14-2.43.28-4.83.44-7.51H39.52V7.49h7.86c.18,2.89.33,5.3.51,8l7.49.38c.16,2.34.32,4.74.51,7.59l7.48.42V39.55h-7.6c0,2.89,0,5.47,0,8Zm-40-16.08h7.58V24H15.86ZM40,23.91v7.57h7.36V23.91Z" transform="translate(0.06)"/><path class="cls-1" d="M7.61,47.62l0,8.15.14-.14H0V47.77H7.75Z" transform="translate(0.06)"/><path class="cls-1" d="M55.75,55.77c0-2.78.09-5.55.15-8.33l-.14.15h7.61v8H55.61Z" transform="translate(0.06)"/><path class="cls-1" d="M7.58,55.77h7.73v7.62H7.72V55.63Z" transform="translate(0.06)"/><path class="cls-1" d="M55.61,55.62v7.74H48V55.77h7.76Z" transform="translate(0.06)"/></svg>