<svg id="Layer_1" data-name="Layer 1" xmlns="http://www.w3.org/2000/svg" viewBox="0 0 95.46 63.33"><defs><style>.cls-1{fill:#fff;}</style></defs><path class="cls-1" d="M39.77,47.58H24v7.89l7.29.33v7.53H15.9l-.35-7.42L8,55.45V47.88l7.26-.4V39.8H0v-24H7.45c.15-2.72.29-5.13.46-8H31.59V0H63.48c.14,2.39.29,4.79.45,7.54H87.44l.46,7.83,7.56.54V39.46H80v8h7.33v7.88l-7.46.51v7.38H64V55.83l7.29-.32V47.58H55.64l.14.14V40H39.64v7.74Zm-.24-23.53H24v7.29H39.53Zm16.41,7.33H71.38V24H55.94Z"/><path class="cls-1" d="M55.64,47.58v7.74H39.77V47.58l-.13.14H55.78Z"/></svg>