<?xml version="1.0" encoding="utf-8"?>
<!-- Generator: Adobe Illustrator 25.4.1, SVG Export Plug-In . SVG Version: 6.00 Build 0)  -->
<svg version="1.1" id="Layer_1" xmlns="http://www.w3.org/2000/svg" xmlns:xlink="http://www.w3.org/1999/xlink" x="0px" y="0px"
	 viewBox="0 0 257.6 157.5" style="enable-background:new 0 0 257.6 157.5;" xml:space="preserve">
<style type="text/css">
	.st0{fill:#32CD32;}
</style>
<g>
	<rect x="39.2" y="19.1" class="st0" width="19.9" height="21.2"/>
	<polygon class="st0" points="99,61.6 99,61.5 98.8,61.5 79.1,61.5 79.1,82.8 59.2,82.8 59.2,82.8 59.2,93.4 59.2,101.2 78.8,101.2 
		78.8,82.8 98.8,82.8 98.8,61.6 	"/>
	<polygon class="st0" points="39.2,61.6 39.2,61.5 39.2,49.8 39.2,40.3 19.9,40.3 19.9,44 19.9,56.8 19.9,59.6 19.9,65.2 19.9,80.8 
		39.2,80.8 	"/>
	<polygon class="st0" points="79.1,40.3 98.8,40.3 99,40.3 99,19.1 99,19.1 99,0 59.2,0 59.2,19.1 79.1,19.1 	"/>
	<polygon class="st0" points="118.7,82.8 98.8,82.8 98.8,101.2 118.8,101.2 118.8,82.8 118.8,82.8 118.7,82.8 	"/>
	<polygon class="st0" points="59.2,104 39.9,104 39.9,137.3 19.9,137.3 19.9,80.8 0,80.8 0,137.3 19.9,137.3 19.9,157.5 59.2,157.5 
		59.2,138.4 75.3,138.4 75.3,122.4 59.2,122.4 	"/>
	<path class="st0" d="M239.2,137.3V57.6h0.3V40.3h-20.9V19.1h-20.1V0h-39.8v40.3h-19.9v21.2h19.9V40.3h19.9v21.2h-19.9v21.2h-19.9
		v18.4h59.6v21.2h-15.3v16h15.4v19.1h59.1v-20.2H239.2z M218.3,52.2v9.4v0v11.8v9.4h-19.9v-9.4V61.6v0v-9.4V40.3h-19.9V19.1h19.9
		v21.2h19.9V52.2z"/>
	<rect x="79.1" y="104" class="st0" width="18.4" height="17.9"/>
</g>
</svg>
