<?xml version="1.0" encoding="utf-8"?>
<!-- Generator: Adobe Illustrator 25.4.1, SVG Export Plug-In . SVG Version: 6.00 Build 0)  -->
<svg version="1.1" id="Layer_1" xmlns="http://www.w3.org/2000/svg" xmlns:xlink="http://www.w3.org/1999/xlink" x="0px" y="0px"
	 viewBox="0 0 257.6 157.5" style="enable-background:new 0 0 257.6 157.5;" xml:space="preserve">
<style type="text/css">
	.st0{fill:none;}
	.st1{fill:#32CD32;}
</style>
<g>
	<polygon class="st0" points="39.2,82.8 39.2,104 39.2,104 59.2,104 59.2,82.8 59.1,82.8 	"/>
	<polygon class="st0" points="78.8,82.8 78.8,104 78.8,104 98.8,104 98.8,82.8 98.7,82.8 	"/>
	<polygon class="st0" points="178.5,19.1 178.5,19.1 178.5,40.3 178.5,40.3 198.4,40.3 198.4,19.1 	"/>
	<polygon class="st0" points="198.4,61.6 198.4,73.4 198.4,82.8 218.3,82.8 218.3,73.4 218.3,61.5 218.3,52.2 218.3,40.3 
		198.4,40.3 	"/>
	<rect x="39.2" y="19.1" class="st1" width="19.9" height="21.2"/>
	<path class="st1" d="M239.4,59.4V40.3h-20.9V19.1h-20.1V0H59.2v19.1h19.9v21.2h19.7H99V19.1h0H119h0v21.2h0h-0.2v21.2h0.2h39.8
		v21.2h0h-19.9h0V104v0h-19.9v0V82.8h-0.2H98.8V104H78.8v0V82.8h19.9h0V61.6H79.1v21.2H59.2V61.5H39.2V40.3H18.9v19.1H0v98.1h59.2
		v-19.1h16.2v-16.6h107.7v16.6h15.4v19.1h59.1V59.4H239.4z M59.2,104H39.2v0V82.8h19.9h0V104z M218.3,52.2v9.4v11.8v9.4h-19.9v-9.4
		V61.6V40.3h-19.9h0V19.1h0h19.9v21.2h19.9V52.2z"/>
</g>
</svg>
